<?xml version="1.0" encoding="UTF-8" standalone="no"?>
<svg
   xmlns:dc="http://purl.org/dc/elements/1.1/"
   xmlns:cc="http://creativecommons.org/ns#"
   xmlns:rdf="http://www.w3.org/1999/02/22-rdf-syntax-ns#"
   xmlns:svg="http://www.w3.org/2000/svg"
   xmlns="http://www.w3.org/2000/svg"
   xmlns:sodipodi="http://sodipodi.sourceforge.net/DTD/sodipodi-0.dtd"
   xmlns:inkscape="http://www.inkscape.org/namespaces/inkscape"
   viewBox="0 -256 1950 1950"
   id="svg2989"
   version="1.1"
   inkscape:version="0.48.4 r9939"
   width="100%"
   height="100%"
   sodipodi:docname="GINFIZZ-sync.svg">
  <metadata
     id="metadata2999">
    <rdf:RDF>
      <cc:Work
         rdf:about="">
        <dc:format>image/svg+xml</dc:format>
        <dc:type
           rdf:resource="http://purl.org/dc/dcmitype/StillImage" />
        <dc:title />
      </cc:Work>
    </rdf:RDF>
  </metadata>
  <defs
     id="defs2997" />
  <sodipodi:namedview
     pagecolor="#ffffff"
     bordercolor="#666666"
     borderopacity="1"
     objecttolerance="10"
     gridtolerance="10"
     guidetolerance="10"
     inkscape:pageopacity="0"
     inkscape:pageshadow="2"
     inkscape:window-width="1366"
     inkscape:window-height="721"
     id="namedview2995"
     showgrid="false"
     inkscape:zoom="0.26339286"
     inkscape:cx="960"
     inkscape:cy="903.59323"
     inkscape:window-x="-2"
     inkscape:window-y="-3"
     inkscape:window-maximized="1"
     inkscape:current-layer="svg2989" />
  <g
     transform="matrix(1,0,0,-1,15.186441,1405.4576)"
     id="g2991"
     style="fill:#002163;fill-opacity:1;stroke-width:15;stroke-miterlimit:4;stroke-dasharray:none;stroke:#ffcc00;stroke-opacity:1">
    <path
       d="M 1920,384 Q 1920,225 1807.5,112.5 1695,0 1536,0 H 448 Q 263,0 131.5,131.5 0,263 0,448 0,580 71,689.5 142,799 258,853 q -2,28 -2,43 0,212 150,362 150,150 362,150 158,0 286.5,-88 128.5,-88 187.5,-230 70,62 166,62 106,0 181,-75 75,-75 75,-181 0,-75 -41,-138 129,-30 213,-134.5 84,-104.5 84,-239.5 z"
       id="path2993"
       inkscape:connector-curvature="0"
       style="fill:#002163;fill-opacity:1;stroke-width:15;stroke-miterlimit:4;stroke-dasharray:none;stroke:#ffcc00;stroke-opacity:1" />
  </g>
  <g
     transform="matrix(0.59216102,0,0,-0.59216102,503.86439,1205.4577)"
     id="g4"
     style="fill:#ffcc00">
    <path
       d="m 1511,480 q 0,-5 -1,-7 Q 1446,205 1242,38.5 1038,-128 764,-128 618,-128 481.5,-73 345,-18 238,84 L 109,-45 Q 90,-64 64,-64 38,-64 19,-45 0,-26 0,0 v 448 q 0,26 19,45 19,19 45,19 h 448 q 26,0 45,-19 19,-19 19,-45 0,-26 -19,-45 L 420,266 q 71,-66 161,-102 90,-36 187,-36 134,0 250,65 116,65 186,179 11,17 53,117 8,23 30,23 h 192 q 13,0 22.5,-9.5 9.5,-9.5 9.5,-22.5 z m 25,800 V 832 q 0,-26 -19,-45 -19,-19 -45,-19 h -448 q -26,0 -45,19 -19,19 -19,45 0,26 19,45 l 138,138 Q 969,1152 768,1152 634,1152 518,1087 402,1022 332,908 321,891 279,791 271,768 249,768 H 50 Q 37,768 27.5,777.5 18,787 18,800 v 7 q 65,268 270,434.5 205,166.5 480,166.5 146,0 284,-55.5 138,-55.5 245,-156.5 l 130,129 q 19,19 45,19 26,0 45,-19 19,-19 19,-45 z"
       id="path6"
       inkscape:connector-curvature="0"
       style="fill:#ffcc00" />
  </g>
</svg>
