<?xml version="1.0" encoding="UTF-8" standalone="no"?>
<svg
   xmlns:dc="http://purl.org/dc/elements/1.1/"
   xmlns:cc="http://creativecommons.org/ns#"
   xmlns:rdf="http://www.w3.org/1999/02/22-rdf-syntax-ns#"
   xmlns:svg="http://www.w3.org/2000/svg"
   xmlns="http://www.w3.org/2000/svg"
   xmlns:sodipodi="http://sodipodi.sourceforge.net/DTD/sodipodi-0.dtd"
   xmlns:inkscape="http://www.inkscape.org/namespaces/inkscape"
   viewBox="0 -256 1950 1950"
   id="svg2989"
   version="1.1"
   inkscape:version="0.48.4 r9939"
   width="100%"
   height="100%"
   sodipodi:docname="x_wolke_chpwd.svg">
  <metadata
     id="metadata2999">
    <rdf:RDF>
      <cc:Work
         rdf:about="">
        <dc:format>image/svg+xml</dc:format>
        <dc:type
           rdf:resource="http://purl.org/dc/dcmitype/StillImage" />
        <dc:title />
      </cc:Work>
    </rdf:RDF>
  </metadata>
  <defs
     id="defs2997" />
  <sodipodi:namedview
     pagecolor="#ffffff"
     bordercolor="#666666"
     borderopacity="1"
     objecttolerance="10"
     gridtolerance="10"
     guidetolerance="10"
     inkscape:pageopacity="0"
     inkscape:pageshadow="2"
     inkscape:window-width="1366"
     inkscape:window-height="721"
     id="namedview2995"
     showgrid="false"
     inkscape:zoom="0.26339286"
     inkscape:cx="960"
     inkscape:cy="897.89831"
     inkscape:window-x="-2"
     inkscape:window-y="-3"
     inkscape:window-maximized="1"
     inkscape:current-layer="svg2989" />
  <g
     transform="matrix(1,0,0,-1,15.186441,1405.4576)"
     id="g2991"
     style="fill:#002163;fill-opacity:1">
    <path
       d="M 1920,384 Q 1920,225 1807.5,112.5 1695,0 1536,0 H 448 Q 263,0 131.5,131.5 0,263 0,448 0,580 71,689.5 142,799 258,853 q -2,28 -2,43 0,212 150,362 150,150 362,150 158,0 286.5,-88 128.5,-88 187.5,-230 70,62 166,62 106,0 181,-75 75,-75 75,-181 0,-75 -41,-138 129,-30 213,-134.5 84,-104.5 84,-239.5 z"
       id="path2993"
       inkscape:connector-curvature="0"
       style="fill:#002163;fill-opacity:1" />
  </g>
  <g
     transform="matrix(0.44760299,0.44410757,-0.44410757,0.44760299,822.0326,201.28892)"
     id="g3027"
     style="fill:#ffcc00">
    <path
       d="m 832,1024 q 0,80 -56,136 -56,56 -136,56 -80,0 -136,-56 -56,-56 -56,-136 0,-42 19,-83 -41,19 -83,19 -80,0 -136,-56 -56,-56 -56,-136 0,-80 56,-136 56,-56 136,-56 80,0 136,56 56,56 56,136 0,42 -19,83 41,-19 83,-19 80,0 136,56 56,56 56,136 z m 851,-704 q 0,-17 -49,-66 -49,-49 -66,-49 -9,0 -28.5,16 -19.5,16 -36.5,33 -17,17 -38.5,40 -21.5,23 -24.5,26 L 1344,224 1564,4 q 28,-28 28,-68 0,-42 -39,-81 -39,-39 -81,-39 -40,0 -68,28 L 733,515 Q 557,384 368,384 205,384 102.5,486.5 0,589 0,752 q 0,160 95,313 95,153 248,248 153,95 313,95 163,0 265.5,-102.5 Q 1024,1203 1024,1040 1024,851 893,675 l 355,-355 96,96 q -3,3 -26,24.5 -23,21.5 -40,38.5 -17,17 -33,36.5 -16,19.5 -16,28.5 0,17 49,66 49,49 66,49 13,0 23,-10 6,-6 46,-44.5 40,-38.5 82,-79.5 42,-41 86.5,-86 44.5,-45 73,-78 28.5,-33 28.5,-41 z"
       id="path3029"
       inkscape:connector-curvature="0"
       style="fill:#ffcc00" />
  </g>
</svg>
