<?xml version="1.0" encoding="UTF-8" standalone="no"?>
<svg
   xmlns:dc="http://purl.org/dc/elements/1.1/"
   xmlns:cc="http://creativecommons.org/ns#"
   xmlns:rdf="http://www.w3.org/1999/02/22-rdf-syntax-ns#"
   xmlns:svg="http://www.w3.org/2000/svg"
   xmlns="http://www.w3.org/2000/svg"
   xmlns:sodipodi="http://sodipodi.sourceforge.net/DTD/sodipodi-0.dtd"
   xmlns:inkscape="http://www.inkscape.org/namespaces/inkscape"
   viewBox="0 -256 1950 1950"
   id="svg2989"
   version="1.1"
   inkscape:version="0.48.4 r9939"
   width="100%"
   height="100%"
   sodipodi:docname="x_wolke_folder.svg">
  <metadata
     id="metadata2999">
    <rdf:RDF>
      <cc:Work
         rdf:about="">
        <dc:format>image/svg+xml</dc:format>
        <dc:type
           rdf:resource="http://purl.org/dc/dcmitype/StillImage" />
        <dc:title />
      </cc:Work>
    </rdf:RDF>
  </metadata>
  <defs
     id="defs2997" />
  <sodipodi:namedview
     pagecolor="#ffffff"
     bordercolor="#666666"
     borderopacity="1"
     objecttolerance="10"
     gridtolerance="10"
     guidetolerance="10"
     inkscape:pageopacity="0"
     inkscape:pageshadow="2"
     inkscape:window-width="1366"
     inkscape:window-height="721"
     id="namedview2995"
     showgrid="false"
     inkscape:zoom="0.26339286"
     inkscape:cx="960"
     inkscape:cy="899.79662"
     inkscape:window-x="-2"
     inkscape:window-y="-3"
     inkscape:window-maximized="1"
     inkscape:current-layer="svg2989" />
  <g
     transform="matrix(1,0,0,-1,15.186441,1405.4576)"
     id="g2991"
     style="fill:#002163;fill-opacity:1">
    <path
       d="M 1920,384 Q 1920,225 1807.5,112.5 1695,0 1536,0 H 448 Q 263,0 131.5,131.5 0,263 0,448 0,580 71,689.5 142,799 258,853 q -2,28 -2,43 0,212 150,362 150,150 362,150 158,0 286.5,-88 128.5,-88 187.5,-230 70,62 166,62 106,0 181,-75 75,-75 75,-181 0,-75 -41,-138 129,-30 213,-134.5 84,-104.5 84,-239.5 z"
       id="path2993"
       inkscape:connector-curvature="0"
       style="fill:#002163;fill-opacity:1" />
  </g>
  <g
     transform="matrix(0.6294753,0,0,-0.6294753,446.44914,1259.017)"
     id="g3003"
     style="fill:#ffcc00">
    <path
       d="m 1781,605 q 0,35 -53,35 H 640 Q 600,640 554.5,618.5 509,597 483,566 L 189,203 q -18,-24 -18,-40 0,-35 53,-35 h 1088 q 40,0 86,22 46,22 71,53 l 294,363 q 18,22 18,39 z M 640,768 h 768 v 160 q 0,40 -28,68 -28,28 -68,28 H 736 q -40,0 -68,28 -28,28 -28,68 v 64 q 0,40 -28,68 -28,28 -68,28 H 224 q -40,0 -68,-28 -28,-28 -28,-68 V 331 l 256,315 q 44,53 116,87.5 72,34.5 140,34.5 z M 1909,605 q 0,-62 -46,-120 L 1568,122 Q 1525,69 1452,34.5 1379,0 1312,0 H 224 Q 132,0 66,66 0,132 0,224 v 960 q 0,92 66,158 66,66 158,66 h 320 q 92,0 158,-66 66,-66 66,-158 v -32 h 544 q 92,0 158,-66 66,-66 66,-158 V 768 h 192 q 54,0 99,-24.5 45,-24.5 67,-70.5 15,-32 15,-68 z"
       id="path3005"
       inkscape:connector-curvature="0"
       style="fill:#ffcc00" />
  </g>
</svg>
