<?xml version="1.0" encoding="UTF-8" standalone="no"?>
<svg
   xmlns:dc="http://purl.org/dc/elements/1.1/"
   xmlns:cc="http://creativecommons.org/ns#"
   xmlns:rdf="http://www.w3.org/1999/02/22-rdf-syntax-ns#"
   xmlns:svg="http://www.w3.org/2000/svg"
   xmlns="http://www.w3.org/2000/svg"
   xmlns:sodipodi="http://sodipodi.sourceforge.net/DTD/sodipodi-0.dtd"
   xmlns:inkscape="http://www.inkscape.org/namespaces/inkscape"
   viewBox="0 -256 1950 1950"
   id="svg2989"
   version="1.1"
   inkscape:version="0.48.4 r9939"
   width="100%"
   height="100%"
   sodipodi:docname="GINFIZZ-unlock.svg">
  <metadata
     id="metadata2999">
    <rdf:RDF>
      <cc:Work
         rdf:about="">
        <dc:format>image/svg+xml</dc:format>
        <dc:type
           rdf:resource="http://purl.org/dc/dcmitype/StillImage" />
        <dc:title />
      </cc:Work>
    </rdf:RDF>
  </metadata>
  <defs
     id="defs2997" />
  <sodipodi:namedview
     pagecolor="#ffffff"
     bordercolor="#666666"
     borderopacity="1"
     objecttolerance="10"
     gridtolerance="10"
     guidetolerance="10"
     inkscape:pageopacity="0"
     inkscape:pageshadow="2"
     inkscape:window-width="1366"
     inkscape:window-height="721"
     id="namedview2995"
     showgrid="false"
     inkscape:zoom="0.26339286"
     inkscape:cx="960"
     inkscape:cy="901.69492"
     inkscape:window-x="-2"
     inkscape:window-y="-3"
     inkscape:window-maximized="1"
     inkscape:current-layer="svg2989" />
  <g
     transform="matrix(1,0,0,-1,15.186441,1405.4576)"
     id="g2991"
     style="fill:#002163;fill-opacity:1;stroke:#ffcc00;stroke-opacity:1;stroke-width:15;stroke-miterlimit:4;stroke-dasharray:none">
    <path
       d="M 1920,384 Q 1920,225 1807.5,112.5 1695,0 1536,0 H 448 Q 263,0 131.5,131.5 0,263 0,448 0,580 71,689.5 142,799 258,853 q -2,28 -2,43 0,212 150,362 150,150 362,150 158,0 286.5,-88 128.5,-88 187.5,-230 70,62 166,62 106,0 181,-75 75,-75 75,-181 0,-75 -41,-138 129,-30 213,-134.5 84,-104.5 84,-239.5 z"
       id="path2993"
       inkscape:connector-curvature="0"
       style="fill:#002163;fill-opacity:1;stroke:#ffcc00;stroke-opacity:1;stroke-width:15;stroke-miterlimit:4;stroke-dasharray:none" />
  </g>
  <g
     transform="matrix(0.61917744,0,0,-0.61917744,474.03388,1259.017)"
     id="g3400"
     style="fill:#ffcc00">
    <path
       d="m 704,160 q 0,6 -15,57 -15,51 -35,115.5 -20,64.5 -20,65.5 32,16 51,47 19,31 19,67 0,53 -37.5,90.5 Q 629,640 576,640 523,640 485.5,602.5 448,565 448,512 q 0,-36 19,-66.5 19,-30.5 51,-47.5 0,-2 -20,-66 -20,-64 -35,-115 -15,-51 -15,-57 0,-13 9.5,-22.5 Q 467,128 480,128 h 192 q 13,0 22.5,9.5 9.5,9.5 9.5,22.5 z m 960,800 V 704 q 0,-26 -19,-45 -19,-19 -45,-19 h -64 q -26,0 -45,19 -19,19 -19,45 v 256 q 0,106 -75,181 -75,75 -181,75 -106,0 -181,-75 -75,-75 -75,-181 V 768 h 96 q 40,0 68,-28 28,-28 28,-68 V 96 Q 1152,56 1124,28 1096,0 1056,0 H 96 Q 56,0 28,28 0,56 0,96 v 576 q 0,40 28,68 28,28 68,28 h 672 v 192 q 0,185 131.5,316.5 131.5,131.5 316.5,131.5 185,0 316.5,-131.5 Q 1664,1145 1664,960 z"
       id="path3402"
       inkscape:connector-curvature="0"
       style="fill:#ffcc00" />
  </g>
</svg>
