<?xml version="1.0" encoding="UTF-8" standalone="no"?>
<svg
   xmlns:dc="http://purl.org/dc/elements/1.1/"
   xmlns:cc="http://creativecommons.org/ns#"
   xmlns:rdf="http://www.w3.org/1999/02/22-rdf-syntax-ns#"
   xmlns:svg="http://www.w3.org/2000/svg"
   xmlns="http://www.w3.org/2000/svg"
   xmlns:sodipodi="http://sodipodi.sourceforge.net/DTD/sodipodi-0.dtd"
   xmlns:inkscape="http://www.inkscape.org/namespaces/inkscape"
   viewBox="0 -256 1950 1950"
   id="svg2989"
   version="1.1"
   inkscape:version="0.48.4 r9939"
   width="100%"
   height="100%"
   sodipodi:docname="x_wolke_backup.svg">
  <metadata
     id="metadata2999">
    <rdf:RDF>
      <cc:Work
         rdf:about="">
        <dc:format>image/svg+xml</dc:format>
        <dc:type
           rdf:resource="http://purl.org/dc/dcmitype/StillImage" />
        <dc:title />
      </cc:Work>
    </rdf:RDF>
  </metadata>
  <defs
     id="defs2997" />
  <sodipodi:namedview
     pagecolor="#ffffff"
     bordercolor="#666666"
     borderopacity="1"
     objecttolerance="10"
     gridtolerance="10"
     guidetolerance="10"
     inkscape:pageopacity="0"
     inkscape:pageshadow="2"
     inkscape:window-width="1366"
     inkscape:window-height="721"
     id="namedview2995"
     showgrid="false"
     inkscape:zoom="0.26339286"
     inkscape:cx="960"
     inkscape:cy="897.89831"
     inkscape:window-x="-2"
     inkscape:window-y="-3"
     inkscape:window-maximized="1"
     inkscape:current-layer="svg2989" />
  <g
     transform="matrix(1,0,0,-1,15.186441,1405.4576)"
     id="g2991"
     style="fill:#002163;fill-opacity:1">
    <path
       d="M 1920,384 Q 1920,225 1807.5,112.5 1695,0 1536,0 H 448 Q 263,0 131.5,131.5 0,263 0,448 0,580 71,689.5 142,799 258,853 q -2,28 -2,43 0,212 150,362 150,150 362,150 158,0 286.5,-88 128.5,-88 187.5,-230 70,62 166,62 106,0 181,-75 75,-75 75,-181 0,-75 -41,-138 129,-30 213,-134.5 84,-104.5 84,-239.5 z"
       id="path2993"
       inkscape:connector-curvature="0"
       style="fill:#002163;fill-opacity:1" />
  </g>
  <g
     transform="matrix(0.62281075,0,0,-0.62281075,458.30512,1221.5933)"
     id="g3039"
     style="fill:#ffcc00">
    <path
       d="m 1040,320 q 0,-33 -23.5,-56.5 Q 993,240 960,240 927,240 903.5,263.5 880,287 880,320 q 0,33 23.5,56.5 23.5,23.5 56.5,23.5 33,0 56.5,-23.5 Q 1040,353 1040,320 z m 256,0 q 0,-33 -23.5,-56.5 Q 1249,240 1216,240 q -33,0 -56.5,23.5 -23.5,23.5 -23.5,56.5 0,33 23.5,56.5 23.5,23.5 56.5,23.5 33,0 56.5,-23.5 Q 1296,353 1296,320 z m 112,-160 v 320 q 0,13 -9.5,22.5 -9.5,9.5 -22.5,9.5 H 160 q -13,0 -22.5,-9.5 Q 128,493 128,480 V 160 q 0,-13 9.5,-22.5 Q 147,128 160,128 h 1216 q 13,0 22.5,9.5 9.5,9.5 9.5,22.5 z M 178,640 h 1180 l -157,482 q -4,13 -16,21.5 -12,8.5 -26,8.5 H 377 q -14,0 -26,-8.5 -12,-8.5 -16,-21.5 z M 1536,480 V 160 Q 1536,94 1489,47 1442,0 1376,0 H 160 Q 94,0 47,47 0,94 0,160 v 320 q 0,25 16,75 l 197,606 q 17,53 63,86 46,33 101,33 h 782 q 55,0 101,-33 46,-33 63,-86 l 197,-606 q 16,-50 16,-75 z"
       id="path3041"
       inkscape:connector-curvature="0"
       style="fill:#ffcc00" />
  </g>
</svg>
